<?xml version="1.0" encoding="UTF-8"?>
<svg version="1.1" xmlns="http://www.w3.org/2000/svg" width="124" height="104">
<path d="M0 0 C14.83611518 1.15280625 28.810617 7.19091603 42.3125 13.0546875 C41.9825 15.0346875 41.6525 17.0146875 41.3125 19.0546875 C36.0042736 18.42074326 31.49100836 16.68586735 26.5625 14.7421875 C18.38419499 11.60237431 10.26075519 9.48561553 1.6796875 7.78125 C-1.6875 7.0546875 -1.6875 7.0546875 -2.6875 6.0546875 C-2.8125 3.5546875 -2.8125 3.5546875 -2.6875 1.0546875 C-1.6875 0.0546875 -1.6875 0.0546875 0 0 Z " fill="#AF272F" transform="translate(66.6875,60.9453125)"/>
<path d="M0 0 C0 1.98 0 3.96 0 6 C-4.19212009 7.45233813 -8.38225354 8.62203587 -12.6875 9.6875 C-19.87420097 11.5178758 -26.74976246 14.0155956 -33.65307617 16.71362305 C-34.42111572 17.00922119 -35.18915527 17.30481934 -35.98046875 17.609375 C-36.99983521 18.0110791 -36.99983521 18.0110791 -38.03979492 18.42089844 C-40 19 -40 19 -44 19 C-44 17.02 -44 15.04 -44 13 C-34.0209694 8.74005742 -24.0736703 4.75171821 -13.5625 2 C-12.77705811 1.79286377 -11.99161621 1.58572754 -11.18237305 1.37231445 C-7.37834457 0.42203258 -3.95341444 -0.25150947 0 0 Z " fill="#AF272F" transform="translate(59,61)"/>
<path d="M0 0 C-0.29917037 2.76732594 -0.50604592 4.49567419 -2.48828125 6.51953125 C-6.10668141 8.65230522 -9.87253365 9.41748168 -13.9375 10.375 C-21.1006693 12.13210703 -27.68949264 14.26140284 -34.43359375 17.27734375 C-37 18 -37 18 -39.28515625 17.37890625 C-41.38794519 15.68805318 -41.47103467 14.57710332 -42 12 C-10.83265985 -0.49239363 -10.83265985 -0.49239363 0 0 Z " fill="#AF272F" transform="translate(59,69)"/>
<path d="M0 0 C6.58254405 0.55571226 12.51211682 1.79289611 18.8125 3.75 C19.68036133 4.01441895 20.54822266 4.27883789 21.44238281 4.55126953 C28.15084567 6.63720951 34.61123505 9.06532342 41 12 C41 15 41 15 39.58203125 16.87890625 C35.92006512 18.46889759 33.93180065 17.3412693 30.29638672 15.97753906 C29.00498779 15.46271973 29.00498779 15.46271973 27.6875 14.9375 C25.89374666 14.25948935 24.09814548 13.58634838 22.30078125 12.91796875 C20.96394287 12.41982666 20.96394287 12.41982666 19.60009766 11.91162109 C14.75009167 10.2111589 9.77702137 9.07237368 4.7734375 7.921875 C2 7 2 7 0 4 C0 2.68 0 1.36 0 0 Z " fill="#AF272F" transform="translate(65,69)"/>
<path d="M0 0 C0 0.66 0 1.32 0 2 C-0.648479 2.18062988 -1.29695801 2.36125977 -1.96508789 2.54736328 C-13.66861138 5.82787283 -25.18385179 9.14252264 -36.3671875 13.93359375 C-39 15 -39 15 -41 15 C-41 13.02 -41 11.04 -41 9 C-11.20900322 -7.47266881 -11.20900322 -7.47266881 0 0 Z " fill="#AF272F" transform="translate(55,58)"/>
<path d="M0 0 C2.39922638 0.31947923 4.54667881 0.7603322 6.875 1.375 C7.5659375 1.5512793 8.256875 1.72755859 8.96875 1.90917969 C18.27415343 4.42870809 27.13960377 8.24253567 36 12 C36 14.31 36 16.62 36 19 C31.68335771 17.5872807 27.38266938 16.14447405 23.109375 14.60546875 C14.14993413 11.38395735 5.19561885 8.47742505 -4 6 C-2.84826645 3.53199953 -1.95216435 1.95216435 0 0 Z " fill="#AF272F" transform="translate(73,54)"/>
<path d="M0 0 C0.66 1.98 1.32 3.96 2 6 C-4.27153138 8.3739695 -10.57752505 10.62744278 -16.90820312 12.83789062 C-17.62298828 13.08861328 -18.33777344 13.33933594 -19.07421875 13.59765625 C-20.09394775 13.9536792 -20.09394775 13.9536792 -21.13427734 14.31689453 C-22.7238975 14.89890934 -24.2825693 15.56433049 -25.83203125 16.24609375 C-28 17 -28 17 -31 16 C-30.39453125 13.1953125 -30.39453125 13.1953125 -29 10 C-26.19921875 8.2421875 -26.19921875 8.2421875 -22.6875 6.875 C-22.07100586 6.63056152 -21.45451172 6.38612305 -20.81933594 6.13427734 C-5.00635311 0 -5.00635311 0 0 0 Z " fill="#AF272F" transform="translate(46,47)"/>
<path d="M0 0 C6.8740974 1.45930559 13.50111311 3.3747376 20.0625 5.875 C21.02651733 6.22328857 21.02651733 6.22328857 22.01000977 6.57861328 C25.1192979 7.80712702 26.87698357 8.84045142 28.93359375 11.5078125 C30 14 30 14 30 17 C25.00121018 16.2481495 20.45207119 14.40575309 15.75 12.625 C9.53840048 10.28698168 3.31220055 8.05288684 -3 6 C-2.01 4.02 -1.02 2.04 0 0 Z " fill="#AF272F" transform="translate(78,47)"/>
<path d="M0 0 C0 2.31 0 4.62 0 7 C-0.64066406 6.95359375 -1.28132813 6.9071875 -1.94140625 6.859375 C-2.80636719 6.82328125 -3.67132813 6.7871875 -4.5625 6.75 C-5.40941406 6.70359375 -6.25632812 6.6571875 -7.12890625 6.609375 C-10.30889595 7.04202666 -12.33344733 8.24873695 -15.03930664 9.91308594 C-18.62915751 11.90312654 -22.53695313 13.01791751 -26.4375 14.25 C-27.26443359 14.518125 -28.09136719 14.78625 -28.94335938 15.0625 C-30.9600022 15.71528612 -32.97969624 16.35863373 -35 17 C-34.72071893 13.74172082 -34.03955815 12.05414927 -32.09375 9.390625 C-27.86183744 6.12051075 -23.62813944 5.06201367 -18.5 3.75 C-17.56285156 3.49476562 -16.62570313 3.23953125 -15.66015625 2.9765625 C-4.61554276 0 -4.61554276 0 0 0 Z " fill="#AF272F" transform="translate(59,28)"/>
<path d="M0 0 C10.79862866 1.37028053 20.72114498 4.57371499 31 8 C32.71054387 10.21593183 33.75321724 12.46190652 35 15 C34.67 15.66 34.34 16.32 34 17 C30.5792313 15.90827484 27.16423451 14.79947546 23.75 13.6875 C22.78191406 13.37876953 21.81382813 13.07003906 20.81640625 12.75195312 C19.88183594 12.44580078 18.94726562 12.13964844 17.984375 11.82421875 C17.12553711 11.54666748 16.26669922 11.26911621 15.38183594 10.9831543 C12.89920741 9.95839568 11.12217212 8.62323591 9 7 C6.64070358 6.64042111 6.64070358 6.64042111 4.25 6.8125 C3.45078125 6.83957031 2.6515625 6.86664063 1.828125 6.89453125 C1.22484375 6.92933594 0.6215625 6.96414062 0 7 C0 4.69 0 2.38 0 0 Z " fill="#AF272F" transform="translate(65,28)"/>
<path d="M0 0 C18.96941176 1.30823529 18.96941176 1.30823529 25.23046875 7.04296875 C26.67047278 8.97551573 27.90665237 10.85495609 29 13 C25.5787642 14.14041193 24.65131962 13.83126803 21.2890625 12.8203125 C20.37382813 12.55089844 19.45859375 12.28148437 18.515625 12.00390625 C17.08476563 11.56884766 17.08476563 11.56884766 15.625 11.125 C13.74269898 10.56338703 11.85990094 10.00343667 9.9765625 9.4453125 C8.72480225 9.06656982 8.72480225 9.06656982 7.44775391 8.68017578 C4.98018879 7.99449491 2.51656016 7.47097791 0 7 C0 4.69 0 2.38 0 0 Z " fill="#AF272F" transform="translate(65,20)"/>
<path d="M0 0 C0 1.98 0 3.96 0 6 C-0.89138672 6.21148682 -0.89138672 6.21148682 -1.80078125 6.42724609 C-4.5339709 7.0760067 -7.26698626 7.72549874 -10 8.375 C-10.93457031 8.59671875 -11.86914062 8.8184375 -12.83203125 9.046875 C-18.23038958 10.33040076 -23.6198169 11.64226511 -29 13 C-27.66401226 8.99203677 -26.31611117 6.64156061 -23 4 C-19.9003195 2.77925065 -16.73210043 1.97968148 -13.5 1.1875 C-12.64535156 0.95869141 -11.79070313 0.72988281 -10.91015625 0.49414062 C-3.97351075 -1.27519095 -3.97351075 -1.27519095 0 0 Z " fill="#AF272F" transform="translate(59,21)"/>
<path d="M0 0 C7.77809586 0.46668575 18.15802122 2.09930103 23.7890625 7.81640625 C25.15598245 10.17163883 26 12.2527697 26 15 C17.28172782 12.14674729 8.64481468 9.06687455 0 6 C0 4.02 0 2.04 0 0 Z " fill="#AF272F" transform="translate(79,40)"/>
<path d="M0 0 C0.33 1.98 0.66 3.96 1 6 C-2.20807087 7.12574941 -5.41650348 8.25046436 -8.625 9.375 C-9.52863281 9.69210938 -10.43226562 10.00921875 -11.36328125 10.3359375 C-15.8980455 11.92476001 -20.43529463 13.49865172 -25 15 C-24.58030392 10.1035457 -22.67528141 8.1446258 -19 5 C-16.42992611 3.87956951 -14.09499639 2.98448761 -11.4375 2.1875 C-10.77814453 1.97158203 -10.11878906 1.75566406 -9.43945312 1.53320312 C-6.1008624 0.47626234 -3.53892385 0 0 0 Z " fill="#AF272F" transform="translate(44,40)"/>
<path d="M0 0 C-2.14929484 5.48604539 -6.98396601 7.42767488 -12 10 C-17.95294934 12.25801527 -23.86712948 13.04429017 -30 11 C-30 10.34 -30 9.68 -30 9 C-6.78640777 0 -6.78640777 0 0 0 Z " fill="#AF272F" transform="translate(53,78)"/>
<path d="M0 0 C7.10754585 0.90801247 13.78080101 2.75385802 20.5625 5 C21.36026855 5.26119629 22.15803711 5.52239258 22.97998047 5.79150391 C24.10557373 6.17314697 24.10557373 6.17314697 25.25390625 6.5625 C26.26432983 6.90474609 26.26432983 6.90474609 27.29516602 7.25390625 C29 8 29 8 31 10 C27.22071631 12.51952246 23.3676231 12.57603043 19 12 C11.27420758 10.12196895 5.39042489 6.88467588 0 1 C0 0.67 0 0.34 0 0 Z " fill="#AF272F" transform="translate(70,78)"/>
<path d="M0 0 C2.375 1.375 2.375 1.375 4 3 C4 3.66 4 4.32 4 5 C1.39688008 5.67099984 -1.20735398 6.33695338 -3.8125 7 C-4.55048828 7.19078125 -5.28847656 7.3815625 -6.04882812 7.578125 C-9.10535341 8.35262914 -11.83373478 9 -15 9 C-12.88945851 2.66837552 -6.46144448 -1.14870124 0 0 Z " fill="#AF272F" transform="translate(53,14)"/>
<path d="M0 0 C3.28892469 2.38577553 6.15295301 5.10776179 9 8 C5.85178538 9.04940487 5.0650509 8.98606526 1.98828125 8.22265625 C0.85229492 7.94711914 0.85229492 7.94711914 -0.30664062 7.66601562 C-1.09232422 7.46685547 -1.87800781 7.26769531 -2.6875 7.0625 C-3.48478516 6.86720703 -4.28207031 6.67191406 -5.10351562 6.47070312 C-7.07080389 5.98771618 -9.03565054 5.4948037 -11 5 C-8.55422551 -0.41564351 -5.89923013 -0.84274716 0 0 Z " fill="#AF272F" transform="translate(77,14)"/>
</svg>
