 <svg  version="1.0" xmlns="http://www.w3.org/2000/svg"  width="124.000000pt" height="104.000000pt" viewBox="0 0 124.000000 104.000000"  preserveAspectRatio="xMidYMid meet">  <g transform="translate(0.000000,104.000000) scale(0.100000,-0.100000)" fill="#ae272f" stroke="none"> <path d="M444 872 c-35 -26 -72 -62 -63 -62 2 0 33 9 67 20 35 11 77 20 93 20 37 0 37 15 -1 35 -40 21 -51 19 -96 -13z"/> <path d="M701 887 c-41 -21 -35 -34 18 -41 28 -4 69 -13 91 -21 55 -19 49 -2 -14 42 -53 37 -60 38 -95 20z"/> <path d="M466 810 c-109 -28 -124 -37 -157 -92 -9 -17 -6 -17 38 1 26 10 92 29 146 41 95 22 103 28 89 61 -6 15 -18 14 -116 -11z"/> <path d="M656 832 c-3 -3 -6 -15 -6 -28 0 -19 9 -24 78 -39 42 -10 105 -27 140 -40 34 -12 62 -20 62 -18 0 3 -10 19 -22 36 -12 18 -22 33 -23 34 -4 7 -224 60 -229 55z"/> <path d="M650 724 c0 -32 1 -33 26 -24 28 11 71 4 94 -15 8 -7 56 -27 105 -43 50 -17 98 -34 109 -38 16 -6 15 -2 -6 32 -22 34 -35 42 -99 62 -41 12 -109 31 -151 41 l-78 18 0 -33z"/> <path d="M416 714 c-132 -38 -133 -39 -160 -85 -19 -32 -19 -32 0 -25 54 22 155 56 167 56 8 0 27 10 43 22 22 18 40 22 76 21 45 -2 48 -1 48 22 0 34 -26 32 -174 -11z"/> <path d="M326 605 c-54 -19 -100 -36 -101 -37 -8 -10 -35 -68 -31 -68 2 0 38 13 78 29 40 17 95 36 121 43 42 11 47 15 47 40 0 15 -3 28 -7 27 -5 0 -52 -15 -107 -34z"/> <path d="M800 626 c0 -8 -3 -21 -6 -29 -4 -11 5 -17 33 -22 21 -4 76 -22 123 -40 46 -19 86 -32 88 -30 2 2 -3 17 -12 33 -13 24 -31 36 -98 60 -126 45 -128 45 -128 28z"/> <path d="M330 524 c-52 -20 -108 -40 -123 -46 -25 -9 -47 -41 -47 -67 0 -5 42 9 93 29 50 21 122 46 159 55 65 17 66 18 56 41 -14 31 -24 30 -138 -12z"/> <path d="M772 539 c-7 -12 -12 -22 -10 -23 2 -2 44 -15 93 -31 50 -15 119 -40 154 -56 35 -16 66 -28 68 -26 2 2 -2 17 -8 34 -9 27 -21 35 -92 61 -90 33 -177 62 -186 62 -4 0 -12 -9 -19 -21z"/> <path d="M400 466 c-41 -12 -113 -38 -160 -57 -76 -31 -85 -38 -88 -63 -3 -24 -1 -28 15 -21 96 39 232 86 293 101 41 10 77 20 79 21 9 6 -33 43 -48 42 -9 0 -50 -11 -91 -23z"/> <path d="M711 466 l-22 -24 48 -7 c58 -8 206 -57 291 -95 l62 -29 0 29 c0 25 -7 32 -47 50 -62 28 -273 100 -294 100 -8 0 -26 -11 -38 -24z"/> <path d="M457 399 c-135 -36 -301 -101 -304 -120 -7 -38 13 -38 122 6 61 24 156 53 213 66 98 22 103 24 100 48 -2 13 -7 26 -13 27 -5 1 -59 -11 -118 -27z"/> <path d="M657 423 c-4 -3 -7 -16 -7 -29 0 -18 7 -23 43 -29 62 -10 253 -70 320 -99 32 -14 59 -26 61 -26 2 0 6 11 8 25 5 22 -1 27 -66 54 -74 31 -200 72 -276 91 -25 6 -52 13 -61 16 -8 2 -18 1 -22 -3z"/> <path d="M470 322 c-58 -15 -149 -45 -204 -66 -98 -38 -98 -38 -78 -58 20 -20 20 -20 83 5 78 31 190 64 245 73 30 4 45 13 57 34 29 48 35 48 -103 12z"/> <path d="M650 335 c0 -30 38 -52 115 -70 44 -9 122 -33 173 -52 74 -28 96 -32 107 -23 32 26 15 36 -160 96 -135 45 -235 66 -235 49z"/> <path d="M515 255 c-97 -27 -275 -88 -275 -95 0 -27 116 -14 185 20 76 38 135 87 90 75z"/> <path d="M710 249 c0 -13 86 -68 132 -85 46 -16 129 -21 148 -9 8 5 -4 14 -36 27 -83 32 -244 76 -244 67z"/> </g> </svg> 